<svg width="299" height="234" viewBox="0 0 299 234" fill="none" xmlns="http://www.w3.org/2000/svg">
<path fill-rule="evenodd" clip-rule="evenodd" d="M68.779 215.831C91.9577 203.427 114.86 191.318 139.115 188.822C156.729 187.078 171.842 190.736 181.835 199.161C194.893 210.128 194.316 225.695 216 228.762C262.68 222 213 186.648 252 179.633C300 171 278.815 140.534 272 120C252 72 275.843 78.1783 297 45C305.105 14.8907 273.295 -4.32322 246 1.99992C221.293 7.70314 213.789 7.72309 188.801 17.0393C175.781 21.893 162.515 28.2456 151.502 37.2214C124.459 59.4031 136.803 78.2302 130.19 100.094C126.688 111.735 118.365 123.284 106.894 133.429C85.9798 151.944 60.0843 165.636 35.971 179.633C12.8741 193.033 -11.3097 221.233 7.57573 233.272C7.57573 233.272 30.7471 235.029 43.7899 228.762C52.1789 224.686 60.5131 220.24 68.779 215.831Z" fill="#FFEB00"/>
</svg>
