<svg width="331" height="309" viewBox="0 0 331 309" fill="none" xmlns="http://www.w3.org/2000/svg">
<path fill-rule="evenodd" clip-rule="evenodd" d="M186.127 34.4604C229.904 11.4325 281.665 48.7979 272.334 97.4363C272.235 98.0878 272.07 98.7294 271.981 99.3134C258.868 160.557 344.426 184.492 290.245 206.334C236.064 228.175 285.94 256.935 233.028 269.121C180.05 281.298 145.535 317.85 94.9328 240.055C48.8678 169.208 3.13859 187.545 21.832 136.004C25.3725 126.422 27.9719 116.517 29.5934 106.431C32.2028 89.7206 44.9701 61.3759 100.612 57.9268C130.459 56.2629 159.611 48.2635 186.127 34.4604L186.127 34.4604Z" fill="#397EFF"/>
<circle cx="229.078" cy="100.604" r="1.8428" fill="#FFEB00"/>
<ellipse cx="236.778" cy="110.936" rx="2.30329" ry="2.3033" fill="#FFEB00"/>
<ellipse cx="221.444" cy="128.047" rx="1.1187" ry="1.1187" fill="#FFEB00"/>
<circle cx="238.751" cy="87.7054" r="1.1846" fill="#FFEB00"/>
<circle cx="223.418" cy="86.5208" r="1.3164" fill="#FFEB00"/>
<circle cx="215.85" cy="74.6089" r="2.82969" fill="#FFEB00"/>
<ellipse cx="246.979" cy="100.604" rx="1.38231" ry="1.38231" fill="#FFEB00"/>
<circle cx="231.907" cy="121.4" r="0.920988" fill="#FFEB00"/>
<ellipse cx="193.738" cy="100.604" rx="2.89559" ry="2.89559" fill="#FFEB00"/>
<circle cx="213.415" cy="92.9702" r="1.51329" fill="#FFEB00"/>
<circle cx="206.44" cy="118.701" r="2.10559" fill="#FFEB00"/>
<ellipse cx="192.422" cy="71.8452" rx="3.42199" ry="3.42199" fill="#FFEB00"/>
<ellipse cx="207.888" cy="61.4482" rx="1.44821" ry="1.44821" fill="#FFEB00"/>
<ellipse cx="226.182" cy="70.5295" rx="1.3164" ry="1.3164" fill="#FFEB00"/>
<circle cx="243.556" cy="71.8451" r="2.63198" fill="#FFEB00"/>
<circle cx="246.978" cy="86.5208" r="1.71099" fill="#FFEB00"/>
<ellipse cx="193.738" cy="88.9559" rx="1.3164" ry="1.3164" fill="#FFEB00"/>
<circle cx="256.718" cy="106.856" r="2.3692" fill="#FFEB00"/>
<circle cx="218.679" cy="108.896" r="2.03968" fill="#FFEB00"/>
<circle cx="252.835" cy="125.15" r="2.82969" fill="#FFEB00"/>
</svg>
