<svg width="280" height="248" viewBox="0 0 280 248" fill="none" xmlns="http://www.w3.org/2000/svg">
<path fill-rule="evenodd" clip-rule="evenodd" d="M232.928 116.365C214.065 115.457 195.471 114.415 178.951 103.096C166.975 94.8072 158.282 82.5977 154.378 68.5824C149.264 50.312 153.129 27.7016 139.987 12.3403C133.01 4.12328 122.442 -0.160675 111.699 0.8729C83.6778 3.47558 75.088 30.1812 73.2098 54.3664C71.064 82.7843 74.783 113.411 50.8541 134.202C36.7398 146.488 13.9598 151.238 4.01666 168.4C-10.4922 193.575 19.7179 214.652 39.3875 223.914C57.1863 232.319 74.845 239.781 93.9353 244.771C103.882 247.372 114.449 248.63 124.358 246.012C148.734 239.445 146.497 213.804 157.505 195.937C163.354 186.413 172.306 179.72 182.871 176.206C202.14 169.782 223.163 170.959 243.123 170.821C262.239 170.697 286.605 156.551 278.035 133.906C274.08 123.511 263.524 118.996 253.129 117.78C246.429 117.043 239.65 116.703 232.928 116.365Z" fill="#FFCD00"/>
<circle cx="121.078" cy="108.604" r="1.8428" fill="#003CA5"/>
<ellipse cx="128.778" cy="118.936" rx="2.30329" ry="2.3033" fill="#003CA5"/>
<ellipse cx="113.444" cy="136.047" rx="1.1187" ry="1.1187" fill="#003CA5"/>
<circle cx="130.751" cy="95.7054" r="1.1846" fill="#003CA5"/>
<circle cx="115.418" cy="94.5208" r="1.3164" fill="#003CA5"/>
<circle cx="107.85" cy="82.6089" r="2.82969" fill="#003CA5"/>
<ellipse cx="138.979" cy="108.604" rx="1.38231" ry="1.38231" fill="#003CA5"/>
<circle cx="123.907" cy="129.4" r="0.920988" fill="#003CA5"/>
<ellipse cx="85.7384" cy="108.604" rx="2.89559" ry="2.89559" fill="#003CA5"/>
<circle cx="105.415" cy="100.97" r="1.51329" fill="#003CA5"/>
<circle cx="98.4396" cy="126.701" r="2.10559" fill="#003CA5"/>
<ellipse cx="84.422" cy="79.8452" rx="3.42199" ry="3.42199" fill="#003CA5"/>
<ellipse cx="99.8877" cy="69.4482" rx="1.44821" ry="1.44821" fill="#003CA5"/>
<ellipse cx="118.182" cy="78.5295" rx="1.3164" ry="1.3164" fill="#003CA5"/>
<circle cx="135.556" cy="79.8451" r="2.63198" fill="#003CA5"/>
<circle cx="138.978" cy="94.5208" r="1.71099" fill="#003CA5"/>
<ellipse cx="85.7383" cy="96.9559" rx="1.3164" ry="1.3164" fill="#003CA5"/>
<circle cx="148.718" cy="114.856" r="2.3692" fill="#003CA5"/>
<circle cx="110.679" cy="116.896" r="2.03968" fill="#003CA5"/>
<circle cx="144.835" cy="133.15" r="2.82969" fill="#003CA5"/>
</svg>
