<svg width="33" height="33" viewBox="0 0 33 33" fill="none" xmlns="http://www.w3.org/2000/svg">
<path d="M16.5099 26.7868C16.5099 27.3682 16.174 27.8963 15.6484 28.1428C15.4451 28.2389 15.2274 28.2854 15.011 28.2854C14.6684 28.2854 14.3289 28.1676 14.0547 27.9403L5.86202 21.1514H1.49858C0.671081 21.1521 0 20.4807 0 19.6532V13.6827C0 12.8548 0.671081 12.1837 1.49858 12.1837H5.86238L14.0551 5.39488C14.5027 5.02387 15.1234 4.94477 15.6487 5.19306C16.174 5.43957 16.5103 5.96806 16.5103 6.54905L16.5099 26.7868ZM22.2691 24.4451C22.2326 24.4476 22.1974 24.449 22.1613 24.449C21.7654 24.449 21.3838 24.2926 21.1018 24.0103L20.9014 23.8092C20.3757 23.2846 20.314 22.4535 20.7567 21.8569C21.8789 20.3438 22.4713 18.5501 22.4713 16.6685C22.4713 14.6446 21.7988 12.7463 20.5261 11.1785C20.0416 10.5826 20.0863 9.71717 20.6293 9.17449L20.8294 8.97409C21.1288 8.67473 21.5299 8.51157 21.9641 8.53746C22.3869 8.55874 22.7816 8.75773 23.0498 9.08546C24.8151 11.2455 25.7476 13.8682 25.7476 16.6688C25.7476 19.2772 24.9229 21.7601 23.3623 23.8478C23.1016 24.1958 22.7029 24.4143 22.2691 24.4451ZM28.4649 29.0764C28.1939 29.3967 27.802 29.5889 27.3824 29.6066C27.3618 29.6073 27.3409 29.608 27.3196 29.608C26.9227 29.608 26.5417 29.4513 26.2598 29.1693L26.0629 28.9724C25.5128 28.4227 25.4755 27.5434 25.9756 26.9482C28.3925 24.0738 29.724 20.4233 29.724 16.6685C29.724 12.7629 28.2985 9.00318 25.711 6.08192C25.1864 5.48887 25.2131 4.59114 25.7713 4.03072L25.9678 3.83387C26.2594 3.54089 26.6382 3.37951 27.0727 3.39334C27.4852 3.40504 27.8754 3.58736 28.1496 3.89594C31.2773 7.41734 33 11.9539 33 16.6685C33.0007 21.2046 31.39 25.6114 28.4649 29.0764Z" fill="#003CA5"/>
</svg>
